<svg width="129" height="25" viewBox="0 0 129 25" fill="none" xmlns="http://www.w3.org/2000/svg">
<path d="M0.7125 22.89C1.3525 22.89 1.8125 22.79 2.0925 22.59C2.3725 22.39 2.5125 22.06 2.5125 21.6V3.9C2.5125 3.38 2.3825 3.04 2.1225 2.88C1.8825 2.7 1.4125 2.61 0.7125 2.61V1.5H9.5625C10.0225 1.5 10.3525 1.42 10.5525 1.26C10.7525 1.08 10.8825 0.779999 10.9425 0.359999H11.9625L13.2825 5.79L12.2625 6.06C11.9225 5.1 11.5825 4.38 11.2425 3.9C10.9225 3.42 10.5025 3.1 9.9825 2.94C9.4825 2.78 8.7825 2.7 7.8825 2.7H5.8725V12.15H6.6525C8.0325 12.15 8.7225 11.43 8.7225 9.99H9.8325V15.51H8.7225C8.7225 14.75 8.5525 14.2 8.2125 13.86C7.8925 13.52 7.3725 13.35 6.6525 13.35H5.8725V21.6C5.8725 22.06 6.0125 22.39 6.2925 22.59C6.5725 22.79 7.0325 22.89 7.6725 22.89V24H0.7125V22.89ZM26.6508 17.88C26.6508 22.16 24.9808 24.3 21.6408 24.3C19.9208 24.3 18.5608 23.73 17.5608 22.59C16.5808 21.45 16.0908 19.88 16.0908 17.88V10.2C16.0908 9.74 15.9508 9.41 15.6708 9.21C15.3908 9.01 14.9308 8.91 14.2908 8.91V7.8H21.1908V8.91C20.5508 8.91 20.0908 9.01 19.8108 9.21C19.5308 9.41 19.3908 9.74 19.3908 10.2V19.92C19.3908 20.84 19.6508 21.59 20.1708 22.17C20.7108 22.75 21.4108 23.04 22.2708 23.04C23.1908 23.04 23.9308 22.6 24.4908 21.72C25.0708 20.84 25.3608 19.71 25.3608 18.33V10.2C25.3608 9.72 25.2308 9.39 24.9708 9.21C24.7108 9.01 24.2408 8.91 23.5608 8.91V7.8H28.4508V8.91C27.7708 8.91 27.3008 9.01 27.0408 9.21C26.7808 9.39 26.6508 9.72 26.6508 10.2V17.88ZM29.4192 22.89C30.0592 22.89 30.5192 22.79 30.7992 22.59C31.0792 22.39 31.2192 22.06 31.2192 21.6V10.2C31.2192 9.74 31.0792 9.41 30.7992 9.21C30.5192 9.01 30.0592 8.91 29.4192 8.91V7.8H36.4992C38.3392 7.8 39.6892 8.22 40.5492 9.06C41.4092 9.9 41.8392 11.21 41.8392 12.99C41.8392 13.85 41.6192 14.6 41.1792 15.24C40.7392 15.86 40.0392 16.41 39.0792 16.89C40.7592 17.59 41.5992 18.84 41.5992 20.64C41.5992 21.26 41.7192 21.79 41.9592 22.23C42.2192 22.67 42.5292 22.89 42.8892 22.89H43.0692V24H42.7992C41.3392 24 40.2592 23.73 39.5592 23.19C38.8792 22.65 38.5392 21.8 38.5392 20.64C38.5392 19.78 38.3192 19.04 37.8792 18.42C37.4392 17.78 36.9292 17.46 36.3492 17.46H35.7192V16.35H36.4992C37.1592 16.35 37.6892 16.08 38.0892 15.54C38.4892 15 38.6892 14.29 38.6892 13.41V11.88C38.6892 11 38.4892 10.3 38.0892 9.78C37.6892 9.24 37.1592 8.97 36.4992 8.97H34.5192V21.6C34.5192 22.06 34.6592 22.39 34.9392 22.59C35.2192 22.79 35.6792 22.89 36.3192 22.89V24H29.4192V22.89ZM45.7505 21.6V10.2C45.7505 9.74 45.6105 9.41 45.3305 9.21C45.0505 9.01 44.5905 8.91 43.9505 8.91V7.8H48.9905L55.4405 18.18V10.2C55.4405 9.72 55.3105 9.39 55.0505 9.21C54.7905 9.01 54.3205 8.91 53.6405 8.91V7.8H58.5605V8.91C57.8805 8.91 57.4105 9.01 57.1505 9.21C56.8905 9.39 56.7605 9.72 56.7605 10.2V24H55.4105L47.0705 10.5V21.6C47.0705 22.08 47.2005 22.42 47.4605 22.62C47.7205 22.8 48.1905 22.89 48.8705 22.89V24H43.9505V22.89C44.6305 22.89 45.1005 22.8 45.3605 22.62C45.6205 22.42 45.7505 22.08 45.7505 21.6ZM59.888 22.89C60.528 22.89 60.988 22.79 61.268 22.59C61.548 22.39 61.688 22.06 61.688 21.6V10.2C61.688 9.74 61.548 9.41 61.268 9.21C60.988 9.01 60.528 8.91 59.888 8.91V7.8H66.788V8.91C66.148 8.91 65.688 9.01 65.408 9.21C65.128 9.41 64.988 9.74 64.988 10.2V21.6C64.988 22.06 65.128 22.39 65.408 22.59C65.688 22.79 66.148 22.89 66.788 22.89V24H59.888V22.89ZM68.4176 22.89C69.0576 22.89 69.5176 22.79 69.7976 22.59C70.0776 22.39 70.2176 22.06 70.2176 21.6V3.9C70.2176 3.44 70.0776 3.11 69.7976 2.91C69.5176 2.71 69.0576 2.61 68.4176 2.61V1.5H74.3276L78.7376 18.03L82.9376 1.5H88.6976V2.61C88.0176 2.61 87.5476 2.71 87.2876 2.91C87.0276 3.09 86.8976 3.42 86.8976 3.9V21.6C86.8976 22.06 87.0376 22.39 87.3176 22.59C87.5976 22.79 88.0576 22.89 88.6976 22.89V24H81.7976V22.89C82.4376 22.89 82.8976 22.79 83.1776 22.59C83.4576 22.39 83.5976 22.06 83.5976 21.6V4.38L78.5576 24H77.1776L71.6276 4.77V21.6C71.6276 22.06 71.7676 22.39 72.0476 22.59C72.3276 22.79 72.7876 22.89 73.4276 22.89V24H68.4176V22.89ZM92.5774 21.57C92.4374 21.97 92.5274 22.29 92.8474 22.53C93.1874 22.77 93.6974 22.89 94.3774 22.89V24H89.3674V22.89C89.9074 22.89 90.3174 22.79 90.5974 22.59C90.8774 22.39 91.0874 22.05 91.2274 21.57L95.7274 7.68H97.1674L101.847 21.63C102.027 22.15 102.227 22.49 102.447 22.65C102.667 22.81 103.087 22.89 103.707 22.89V24H96.8074V22.89C98.2874 22.89 98.8974 22.48 98.6374 21.66L98.0074 19.65H93.2074L92.5774 21.57ZM93.5974 18.51H97.6474L95.6674 12.21L93.5974 18.51ZM104.185 22.89C104.825 22.89 105.285 22.79 105.565 22.59C105.845 22.39 105.985 22.06 105.985 21.6V10.2C105.985 9.74 105.845 9.41 105.565 9.21C105.285 9.01 104.825 8.91 104.185 8.91V7.8H111.085V8.91C110.445 8.91 109.985 9.01 109.705 9.21C109.425 9.41 109.285 9.74 109.285 10.2V22.83H111.175C112.075 22.83 112.765 22.73 113.245 22.53C113.725 22.31 114.085 21.91 114.325 21.33C114.565 20.75 114.745 19.91 114.865 18.81H115.855V24.63H114.835C114.755 24.39 114.565 24.22 114.265 24.12C113.965 24.04 113.465 24 112.765 24H104.185V22.89ZM117.046 22.89C117.686 22.89 118.146 22.79 118.426 22.59C118.706 22.39 118.846 22.06 118.846 21.6V10.2C118.846 9.74 118.706 9.41 118.426 9.21C118.146 9.01 117.686 8.91 117.046 8.91V7.8H123.946V8.91C123.306 8.91 122.846 9.01 122.566 9.21C122.286 9.41 122.146 9.74 122.146 10.2V22.83H124.036C124.936 22.83 125.626 22.73 126.106 22.53C126.586 22.31 126.946 21.91 127.186 21.33C127.426 20.75 127.606 19.91 127.726 18.81H128.716V24.63H127.696C127.616 24.39 127.426 24.22 127.126 24.12C126.826 24.04 126.326 24 125.626 24H117.046V22.89Z" fill="#40514E"/>
</svg>
