<svg width="207" height="66" viewBox="0 0 207 66" fill="none" xmlns="http://www.w3.org/2000/svg">
<path d="M66.7125 44.89C67.3525 44.89 67.8125 44.79 68.0925 44.59C68.3725 44.39 68.5125 44.06 68.5125 43.6V25.9C68.5125 25.38 68.3825 25.04 68.1225 24.88C67.8825 24.7 67.4125 24.61 66.7125 24.61V23.5H75.5625C76.0225 23.5 76.3525 23.42 76.5525 23.26C76.7525 23.08 76.8825 22.78 76.9425 22.36H77.9625L79.2825 27.79L78.2625 28.06C77.9225 27.1 77.5825 26.38 77.2425 25.9C76.9225 25.42 76.5025 25.1 75.9825 24.94C75.4825 24.78 74.7825 24.7 73.8825 24.7H71.8725V34.15H72.6525C74.0325 34.15 74.7225 33.43 74.7225 31.99H75.8325V37.51H74.7225C74.7225 36.75 74.5525 36.2 74.2125 35.86C73.8925 35.52 73.3725 35.35 72.6525 35.35H71.8725V43.6C71.8725 44.06 72.0125 44.39 72.2925 44.59C72.5725 44.79 73.0325 44.89 73.6725 44.89V46H66.7125V44.89ZM92.6508 39.88C92.6508 44.16 90.9808 46.3 87.6408 46.3C85.9208 46.3 84.5608 45.73 83.5608 44.59C82.5808 43.45 82.0908 41.88 82.0908 39.88V32.2C82.0908 31.74 81.9508 31.41 81.6708 31.21C81.3908 31.01 80.9308 30.91 80.2908 30.91V29.8H87.1908V30.91C86.5508 30.91 86.0908 31.01 85.8108 31.21C85.5308 31.41 85.3908 31.74 85.3908 32.2V41.92C85.3908 42.84 85.6508 43.59 86.1708 44.17C86.7108 44.75 87.4108 45.04 88.2708 45.04C89.1908 45.04 89.9308 44.6 90.4908 43.72C91.0708 42.84 91.3608 41.71 91.3608 40.33V32.2C91.3608 31.72 91.2308 31.39 90.9708 31.21C90.7108 31.01 90.2408 30.91 89.5608 30.91V29.8H94.4508V30.91C93.7708 30.91 93.3008 31.01 93.0408 31.21C92.7808 31.39 92.6508 31.72 92.6508 32.2V39.88ZM95.4192 44.89C96.0592 44.89 96.5192 44.79 96.7992 44.59C97.0792 44.39 97.2192 44.06 97.2192 43.6V32.2C97.2192 31.74 97.0792 31.41 96.7992 31.21C96.5192 31.01 96.0592 30.91 95.4192 30.91V29.8H102.499C104.339 29.8 105.689 30.22 106.549 31.06C107.409 31.9 107.839 33.21 107.839 34.99C107.839 35.85 107.619 36.6 107.179 37.24C106.739 37.86 106.039 38.41 105.079 38.89C106.759 39.59 107.599 40.84 107.599 42.64C107.599 43.26 107.719 43.79 107.959 44.23C108.219 44.67 108.529 44.89 108.889 44.89H109.069V46H108.799C107.339 46 106.259 45.73 105.559 45.19C104.879 44.65 104.539 43.8 104.539 42.64C104.539 41.78 104.319 41.04 103.879 40.42C103.439 39.78 102.929 39.46 102.349 39.46H101.719V38.35H102.499C103.159 38.35 103.689 38.08 104.089 37.54C104.489 37 104.689 36.29 104.689 35.41V33.88C104.689 33 104.489 32.3 104.089 31.78C103.689 31.24 103.159 30.97 102.499 30.97H100.519V43.6C100.519 44.06 100.659 44.39 100.939 44.59C101.219 44.79 101.679 44.89 102.319 44.89V46H95.4192V44.89ZM111.75 43.6V32.2C111.75 31.74 111.61 31.41 111.33 31.21C111.05 31.01 110.59 30.91 109.95 30.91V29.8H114.99L121.44 40.18V32.2C121.44 31.72 121.31 31.39 121.05 31.21C120.79 31.01 120.32 30.91 119.64 30.91V29.8H124.56V30.91C123.88 30.91 123.41 31.01 123.15 31.21C122.89 31.39 122.76 31.72 122.76 32.2V46H121.41L113.07 32.5V43.6C113.07 44.08 113.2 44.42 113.46 44.62C113.72 44.8 114.19 44.89 114.87 44.89V46H109.95V44.89C110.63 44.89 111.1 44.8 111.36 44.62C111.62 44.42 111.75 44.08 111.75 43.6ZM125.888 44.89C126.528 44.89 126.988 44.79 127.268 44.59C127.548 44.39 127.688 44.06 127.688 43.6V32.2C127.688 31.74 127.548 31.41 127.268 31.21C126.988 31.01 126.528 30.91 125.888 30.91V29.8H132.788V30.91C132.148 30.91 131.688 31.01 131.408 31.21C131.128 31.41 130.988 31.74 130.988 32.2V43.6C130.988 44.06 131.128 44.39 131.408 44.59C131.688 44.79 132.148 44.89 132.788 44.89V46H125.888V44.89ZM134.418 44.89C135.058 44.89 135.518 44.79 135.798 44.59C136.078 44.39 136.218 44.06 136.218 43.6V25.9C136.218 25.44 136.078 25.11 135.798 24.91C135.518 24.71 135.058 24.61 134.418 24.61V23.5H140.328L144.738 40.03L148.938 23.5H154.698V24.61C154.018 24.61 153.548 24.71 153.288 24.91C153.028 25.09 152.898 25.42 152.898 25.9V43.6C152.898 44.06 153.038 44.39 153.318 44.59C153.598 44.79 154.058 44.89 154.698 44.89V46H147.798V44.89C148.438 44.89 148.898 44.79 149.178 44.59C149.458 44.39 149.598 44.06 149.598 43.6V26.38L144.558 46H143.178L137.628 26.77V43.6C137.628 44.06 137.768 44.39 138.048 44.59C138.328 44.79 138.788 44.89 139.428 44.89V46H134.418V44.89ZM158.577 43.57C158.437 43.97 158.527 44.29 158.847 44.53C159.187 44.77 159.697 44.89 160.377 44.89V46H155.367V44.89C155.907 44.89 156.317 44.79 156.597 44.59C156.877 44.39 157.087 44.05 157.227 43.57L161.727 29.68H163.167L167.847 43.63C168.027 44.15 168.227 44.49 168.447 44.65C168.667 44.81 169.087 44.89 169.707 44.89V46H162.807V44.89C164.287 44.89 164.897 44.48 164.637 43.66L164.007 41.65H159.207L158.577 43.57ZM159.597 40.51H163.647L161.667 34.21L159.597 40.51ZM170.185 44.89C170.825 44.89 171.285 44.79 171.565 44.59C171.845 44.39 171.985 44.06 171.985 43.6V32.2C171.985 31.74 171.845 31.41 171.565 31.21C171.285 31.01 170.825 30.91 170.185 30.91V29.8H177.085V30.91C176.445 30.91 175.985 31.01 175.705 31.21C175.425 31.41 175.285 31.74 175.285 32.2V44.83H177.175C178.075 44.83 178.765 44.73 179.245 44.53C179.725 44.31 180.085 43.91 180.325 43.33C180.565 42.75 180.745 41.91 180.865 40.81H181.855V46.63H180.835C180.755 46.39 180.565 46.22 180.265 46.12C179.965 46.04 179.465 46 178.765 46H170.185V44.89ZM183.046 44.89C183.686 44.89 184.146 44.79 184.426 44.59C184.706 44.39 184.846 44.06 184.846 43.6V32.2C184.846 31.74 184.706 31.41 184.426 31.21C184.146 31.01 183.686 30.91 183.046 30.91V29.8H189.946V30.91C189.306 30.91 188.846 31.01 188.566 31.21C188.286 31.41 188.146 31.74 188.146 32.2V44.83H190.036C190.936 44.83 191.626 44.73 192.106 44.53C192.586 44.31 192.946 43.91 193.186 43.33C193.426 42.75 193.606 41.91 193.726 40.81H194.716V46.63H193.696C193.616 46.39 193.426 46.22 193.126 46.12C192.826 46.04 192.326 46 191.626 46H183.046V44.89Z" fill="#40514E"/>
<rect x="8" y="9" width="50" height="53" fill="#40514E"/>
<path d="M14.2078 45.52C15.0611 45.52 15.6745 45.3867 16.0478 45.12C16.4211 44.8533 16.6078 44.4133 16.6078 43.8V20.2C16.6078 19.5067 16.4345 19.0533 16.0878 18.84C15.7678 18.6 15.1411 18.48 14.2078 18.48V17H26.0078C26.6211 17 27.0611 16.8933 27.3278 16.68C27.5945 16.44 27.7678 16.04 27.8478 15.48H29.2078L30.9678 22.72L29.6078 23.08C29.1545 21.8 28.7011 20.84 28.2478 20.2C27.8211 19.56 27.2611 19.1333 26.5678 18.92C25.9011 18.7067 24.9678 18.6 23.7678 18.6H21.0878V31.2H22.1278C23.9678 31.2 24.8878 30.24 24.8878 28.32H26.3678V35.68H24.8878C24.8878 34.6667 24.6611 33.9333 24.2078 33.48C23.7811 33.0267 23.0878 32.8 22.1278 32.8H21.0878V43.8C21.0878 44.4133 21.2745 44.8533 21.6478 45.12C22.0211 45.3867 22.6345 45.52 23.4878 45.52V47H14.2078V45.52Z" fill="white"/>
<path d="M40.2109 47H36.4531V46.4844C36.5729 46.474 36.6927 46.4635 36.8125 46.4531C36.9375 46.4427 37.0469 46.4219 37.1406 46.3906C37.2865 46.3438 37.3932 46.263 37.4609 46.1484C37.5339 46.0286 37.5703 45.875 37.5703 45.6875V41.7109C37.5703 41.1693 37.4453 40.7526 37.1953 40.4609C36.9505 40.1641 36.6432 40.0156 36.2734 40.0156C36.0182 40.0156 35.7786 40.0547 35.5547 40.1328C35.3307 40.2109 35.125 40.3203 34.9375 40.4609C34.7865 40.5755 34.6589 40.7005 34.5547 40.8359C34.4557 40.9661 34.3802 41.0755 34.3281 41.1641V45.6094C34.3281 45.7917 34.3594 45.9427 34.4219 46.0625C34.4844 46.1771 34.5911 46.2656 34.7422 46.3281C34.862 46.375 34.9688 46.4115 35.0625 46.4375C35.1615 46.4583 35.2891 46.474 35.4453 46.4844V47H31.7656V46.4844C31.8854 46.474 32 46.4635 32.1094 46.4531C32.224 46.4427 32.3281 46.4219 32.4219 46.3906C32.5677 46.3438 32.6745 46.263 32.7422 46.1484C32.8151 46.0286 32.8516 45.875 32.8516 45.6875V41.7109C32.8516 41.1693 32.7266 40.7526 32.4766 40.4609C32.2318 40.1641 31.9245 40.0156 31.5547 40.0156C31.2995 40.0156 31.0599 40.0573 30.8359 40.1406C30.612 40.2188 30.4062 40.3281 30.2188 40.4688C30.0677 40.5833 29.9401 40.7135 29.8359 40.8594C29.7318 41 29.6536 41.1068 29.6016 41.1797V45.5938C29.6016 45.7708 29.638 45.9193 29.7109 46.0391C29.7839 46.1589 29.8932 46.25 30.0391 46.3125C30.1484 46.3646 30.2604 46.4036 30.375 46.4297C30.4896 46.4557 30.6172 46.474 30.7578 46.4844V47H27.0156V46.4844C27.1354 46.474 27.2578 46.4635 27.3828 46.4531C27.513 46.4427 27.625 46.4219 27.7188 46.3906C27.8646 46.3438 27.9714 46.263 28.0391 46.1484C28.112 46.0286 28.1484 45.875 28.1484 45.6875V40.8984C28.1484 40.7318 28.1094 40.5833 28.0312 40.4531C27.9583 40.3177 27.8542 40.2031 27.7188 40.1094C27.6198 40.0469 27.4974 39.9974 27.3516 39.9609C27.2057 39.9193 27.0547 39.8932 26.8984 39.8828V39.375L29.4766 39.2031L29.5859 39.3125V40.4141H29.6406C29.7708 40.2839 29.9297 40.1302 30.1172 39.9531C30.3047 39.776 30.4792 39.6328 30.6406 39.5234C30.8229 39.3984 31.0495 39.2943 31.3203 39.2109C31.5964 39.1276 31.8932 39.0859 32.2109 39.0859C32.7109 39.0859 33.1406 39.2214 33.5 39.4922C33.8594 39.7578 34.1172 40.0807 34.2734 40.4609C34.4609 40.2786 34.625 40.1198 34.7656 39.9844C34.9115 39.8438 35.1016 39.6953 35.3359 39.5391C35.5339 39.4036 35.7656 39.2943 36.0312 39.2109C36.3021 39.1276 36.6016 39.0859 36.9297 39.0859C37.5807 39.0859 38.0964 39.2995 38.4766 39.7266C38.8568 40.1536 39.0469 40.8099 39.0469 41.6953V45.6094C39.0469 45.7917 39.0781 45.9427 39.1406 46.0625C39.2031 46.1771 39.3099 46.2656 39.4609 46.3281C39.5807 46.375 39.6979 46.4115 39.8125 46.4375C39.9323 46.4583 40.0651 46.474 40.2109 46.4844V47Z" fill="white"/>
</svg>
